<svg xmlns="http://www.w3.org/2000/svg" width="58.992" height="68.407" viewBox="0 0 58.992 68.407"><defs><style>.a{fill:#f2f2f2;}.b{fill:#ddd;}.c{fill:#057195;}.d{fill:#f1faff;}.e{fill:#dcf5ff;}.f{fill:#a66dfd;}.g{fill:#8e41ff;}.h{fill:#3590bb;}.i{fill:#62d8f9;}.j{fill:#0e80ac;}.k{fill:#0acefa;}</style></defs><g transform="translate(-35.236 0)"><path class="a" d="M91,68.407H38.46a3.224,3.224,0,0,1-3.224-3.224V3.224A3.224,3.224,0,0,1,38.46,0H91a3.224,3.224,0,0,1,3.224,3.224v61.96A3.224,3.224,0,0,1,91,68.407Z" transform="translate(0 0)"/><path class="b" d="M417.213,0H411.75a3.224,3.224,0,0,1,3.224,3.224v61.96a3.224,3.224,0,0,1-3.224,3.224h5.463a3.224,3.224,0,0,0,3.224-3.224V3.224A3.224,3.224,0,0,0,417.213,0Z" transform="translate(-326.209)"/><path class="c" d="M38.46,0a3.224,3.224,0,0,0-3.224,3.224V14.849H74.649V0Z" transform="translate(0 0)"/><circle class="c" cx="20.614" cy="20.614" r="20.614" transform="translate(44.118 20.989)"/><circle class="d" cx="15.587" cy="15.587" r="15.587" transform="translate(49.145 26.016)"/><path class="e" d="M238.288,194.719a15.673,15.673,0,0,0-2.731.239,15.589,15.589,0,0,1,0,30.7,15.588,15.588,0,1,0,2.731-30.934Z" transform="translate(-173.557 -168.703)"/><path class="f" d="M85.132,40.073H72.973a1.259,1.259,0,0,1-1.342-1.155v-1.78a1.259,1.259,0,0,1,1.342-1.155H85.132a1.259,1.259,0,0,1,1.342,1.155v1.78A1.259,1.259,0,0,1,85.132,40.073Z" transform="translate(-31.532 -30.175)"/><path class="g" d="M157.068,35.984h-3.985v4.09h3.985a1.347,1.347,0,0,0,1.478-1.155v-1.78A1.347,1.347,0,0,0,157.068,35.984Z" transform="translate(-103.603 -30.176)"/><path class="h" d="M354.862,0H330.223V14.849h29.5V3.224c0-1.78-2.174-3.224-4.856-3.224Z" transform="translate(-265.491 0)"/><circle class="i" cx="2.869" cy="2.869" r="2.869" transform="translate(61.862 4.555)"/><path class="j" d="M414.974,3.224V14.849h5.463V3.224A3.224,3.224,0,0,0,417.213,0H411.75a3.224,3.224,0,0,1,3.224,3.224Z" transform="translate(-326.209 0)"/><path class="d" d="M371.536,31.146h-8.175a1.033,1.033,0,0,1,0-2.066h8.175a1.033,1.033,0,0,1,0,2.066Z" transform="translate(-287.39 -25.195)"/><path class="d" d="M371.536,68.662h-8.175a1.033,1.033,0,0,1,0-2.066h8.175a1.033,1.033,0,0,1,0,2.066Z" transform="translate(-287.39 -57.698)"/><path class="i" d="M164.814,346.222c-2.6,0-2.6,1.653-5.2,1.653s-2.6-1.653-5.2-1.653-2.6,1.653-5.2,1.653c-2.33,0-2.571-1.33-4.472-1.6a15.592,15.592,0,0,0,29.726,0c-1.9.274-2.142,1.6-4.473,1.6-2.6,0-2.6-1.653-5.2-1.653Z" transform="translate(-94.887 -299.964)"/><path class="k" d="M253.151,346.594c-1.9.274-2.142,1.6-4.473,1.6a4.247,4.247,0,0,1-1.492-.24,15.61,15.61,0,0,1-11.63,9.28,15.607,15.607,0,0,0,17.594-10.643Z" transform="translate(-173.557 -300.286)"/></g></svg>